# xmcd
#
# Track frame offsets: 
#        150
#        11422
#        25765
#        41990
#        53952
#        79855
#        95050
#        110470
#        125100
#        136977
#        150267
#        162317
#        181272
#        202970
#        216937
#        241085
#
# Disc length: 3352 seconds
#
# Revision: 3
# Processed by: cddbd v1.5.1PL2 Copyright (c) Steve Scherf et al.
# Submitted via: ExactAudioCopy v0.90b4
#
DISCID=d40d1610
DTITLE=Various Artist - Mojo Workin': Blues for the Next Generation
DYEAR=1997
DGENRE=Blues
TTITLE0=Cross Road Blues - Robert Johnson
TTITLE1=When The Levee Breaks - Kansas Joe and Memphis Minnie
TTITLE2=The Blues Had a Baby and They Named It Rock and Roll - Muddy W
TTITLE2=aters
TTITLE3=Last Fair Deal Gone Down - Taj Mahal
TTITLE4=Preachin' Blues - Son House
TTITLE5=Motherless Children - Blind Willie Johnson
TTITLE6=Johnny B. Goode - Johnny Winter
TTITLE7=Southern Can Is Mine - Blind Willie McTell
TTITLE8=Bukka's Jitterbug Swing - Bukka White
TTITLE9=It Makes My Love Come Down - Bessie Smith
TTITLE10=Key To The Highway 70 No.1 - Brownie McGhee
TTITLE11=Killing Floor - The Electric Flag
TTITLE12=I'm Your Hoochie Coochie Man - Willie Dixon
TTITLE13=Rag Mamma Rag - Blind Boy Fuller
TTITLE14=Texas Flood - Stevie Ray Vaughn
TTITLE15=Am I Wrong - Keb' Mo'
EXTD=
EXTT0=
EXTT1=
EXTT2=
EXTT3=
EXTT4=
EXTT5=
EXTT6=
EXTT7=
EXTT8=
EXTT9=
EXTT10=
EXTT11=
EXTT12=
EXTT13=
EXTT14=
EXTT15=Am I Wrong\n
PLAYORDER=
